<svg width="36" height="35" viewBox="0 0 36 35" fill="none" xmlns="http://www.w3.org/2000/svg">
<path d="M11.032 34.512C9.24 34.512 7.53333 34.192 5.912 33.552C4.29067 32.912 2.968 31.9093 1.944 30.544C0.92 29.136 0.408 27.3867 0.408 25.296C0.408 22.48 1.26133 20.3253 2.968 18.832C4.71733 17.296 7.384 16.144 10.968 15.376L20.376 13.264V13.136C20.4187 11.7707 19.9493 10.768 18.968 10.128C17.9867 9.44533 16.3653 9.104 14.104 9.104C12.7813 9.104 11.416 9.18933 10.008 9.36C8.6 9.488 7.21333 9.68 5.848 9.936L4.184 10.256L2.584 3.536L4.632 2.768C6.72267 2.04267 8.77067 1.46667 10.776 1.04C12.7813 0.613331 14.7653 0.399998 16.728 0.399998C21.08 0.399998 24.5787 1.50933 27.224 3.728C29.8693 5.904 31.192 9.12533 31.192 13.392V23.888C31.192 24.9547 31.4693 25.7013 32.024 26.128C32.6213 26.5547 33.7307 26.8747 35.352 27.088L34.648 34C34.0507 34.128 33.432 34.2347 32.792 34.32C32.1947 34.448 31.6827 34.512 31.256 34.512C28.7813 34.512 26.7973 34.0427 25.304 33.104C23.8533 32.1227 22.744 30.9067 21.976 29.456L20.568 30.672C19.16 31.952 17.6027 32.912 15.896 33.552C14.1893 34.192 12.568 34.512 11.032 34.512ZM14.36 26.64C15.0427 26.64 15.7893 26.5333 16.6 26.32C17.4533 26.064 18.2853 25.68 19.096 25.168L20.376 24.464V18.768L13.72 20.624C12.568 20.9227 11.7787 21.3493 11.352 21.904C10.9253 22.416 10.712 23.0347 10.712 23.76C10.712 24.6987 11.032 25.424 11.672 25.936C12.3547 26.4053 13.2507 26.64 14.36 26.64Z" fill="#ED7C40"/>
</svg>
