<svg width="209" height="91" viewBox="0 0 209 91" fill="none" xmlns="http://www.w3.org/2000/svg">
<g clip-path="url(#clip0_0_1)">
<path d="M121 7C160.2 28.6 66 66 14 82C99.6 70.8 133 40.6667 139 27L182 38L121 7Z" fill="#FF8A00" stroke="#FF8A00"/>
<path d="M32.3789 73H25.2822V70.1025C24.4424 71.2503 23.4276 72.1042 22.2378 72.6641C21.062 73.21 19.7673 73.4829 18.3535 73.4829C16.5059 73.4829 14.8542 73.154 13.3984 72.4961C11.9427 71.8382 10.7109 70.9424 9.70312 69.8086C8.69531 68.6608 7.92546 67.3171 7.39355 65.7773C6.86165 64.2376 6.5957 62.5859 6.5957 60.8223C6.5957 59.0586 6.86165 57.4069 7.39355 55.8672C7.92546 54.3275 8.69531 52.9907 9.70312 51.8569C10.7109 50.7091 11.9427 49.8063 13.3984 49.1484C14.8542 48.4906 16.5059 48.1616 18.3535 48.1616C19.2913 48.1616 20.1802 48.3016 21.02 48.5815C21.8739 48.8615 22.6507 49.2604 23.3506 49.7783C24.0645 50.2822 24.6873 50.8981 25.2192 51.626C25.7651 52.3398 26.1921 53.1377 26.5 54.0195L29.6494 48.7495H32.3789V73ZM25.2402 60.8223C25.2402 60.1924 25.2052 59.5275 25.1353 58.8276C25.0793 58.1278 24.9743 57.4349 24.8203 56.749C24.6663 56.0632 24.4494 55.4123 24.1694 54.7964C23.9035 54.1665 23.5535 53.6136 23.1196 53.1377C22.6997 52.6478 22.1888 52.2629 21.5869 51.9829C20.985 51.703 20.2852 51.563 19.4873 51.563C18.6895 51.563 17.9966 51.71 17.4087 52.0039C16.8208 52.2839 16.3169 52.6688 15.897 53.1587C15.4771 53.6346 15.1271 54.1875 14.8472 54.8174C14.5812 55.4473 14.3713 56.1051 14.2173 56.791C14.0633 57.4769 13.9513 58.1698 13.8813 58.8696C13.8254 59.5555 13.7974 60.2064 13.7974 60.8223C13.7974 61.4382 13.8254 62.096 13.8813 62.7959C13.9513 63.4958 14.0633 64.1886 14.2173 64.8745C14.3713 65.5604 14.5812 66.2183 14.8472 66.8481C15.1271 67.478 15.4771 68.0379 15.897 68.5278C16.3169 69.0037 16.8208 69.3887 17.4087 69.6826C17.9966 69.9626 18.6895 70.1025 19.4873 70.1025C20.2152 70.1025 20.859 69.9556 21.4189 69.6616C21.9928 69.3537 22.4897 68.9478 22.9097 68.4438C23.3436 67.9399 23.7075 67.366 24.0015 66.7222C24.2954 66.0783 24.5334 65.4134 24.7153 64.7275C24.8973 64.0417 25.0303 63.3628 25.1143 62.6909C25.1982 62.005 25.2402 61.3822 25.2402 60.8223ZM58.939 50.8911L54.9497 57.5049C54.7817 56.945 54.5648 56.3151 54.2988 55.6152C54.0329 54.9154 53.7039 54.2645 53.312 53.6626C52.9201 53.0467 52.4512 52.5358 51.9053 52.1299C51.3594 51.71 50.7295 51.5 50.0156 51.5C49.3577 51.5 48.7839 51.668 48.2939 52.0039C47.818 52.3398 47.4121 52.7808 47.0762 53.3267C46.7402 53.8586 46.4603 54.4674 46.2363 55.1533C46.0264 55.8252 45.8584 56.5111 45.7324 57.2109C45.6204 57.8968 45.5435 58.5617 45.5015 59.2056C45.4595 59.8354 45.4385 60.3813 45.4385 60.8433V73H38.3208V48.7495H41.0503L43.9268 54.3975C44.3187 53.4876 44.7666 52.6548 45.2705 51.8989C45.7744 51.1291 46.3553 50.4712 47.0132 49.9253C47.6711 49.3654 48.4129 48.9315 49.2388 48.6235C50.0786 48.3156 51.0234 48.1616 52.0732 48.1616C52.6191 48.1616 53.228 48.2106 53.8999 48.3086C54.5718 48.3926 55.2297 48.5465 55.8735 48.7705C56.5174 48.9805 57.1123 49.2604 57.6582 49.6104C58.2041 49.9603 58.631 50.3872 58.939 50.8911ZM71.0537 73H63.936V51.563H59.5269V48.7495H63.936V39.8262H71.0537V48.7495H78.4023V51.563H71.0537V73ZM102.401 65.2524C102.401 66.3162 102.247 67.2611 101.939 68.0869C101.631 68.9128 101.211 69.6336 100.679 70.2495C100.147 70.8514 99.5174 71.3623 98.7896 71.7822C98.0617 72.1882 97.2778 72.5171 96.438 72.769C95.6121 73.021 94.7443 73.203 93.8345 73.3149C92.9246 73.4269 92.0218 73.4829 91.126 73.4829C89.9222 73.4829 88.8584 73.4059 87.9346 73.252C87.0107 73.098 86.1289 72.853 85.2891 72.5171C84.4492 72.1672 83.6094 71.7192 82.7695 71.1733C81.9437 70.6274 81.0199 69.9626 79.998 69.1787L84.1343 65.7983C84.5122 66.5122 85.0091 67.1631 85.625 67.751C86.2549 68.3249 86.9058 68.8218 87.5776 69.2417C88.2495 69.6616 88.9004 69.9836 89.5303 70.2075C90.1602 70.4315 90.6711 70.5435 91.063 70.5435C91.3849 70.5435 91.7489 70.5365 92.1548 70.5225C92.5607 70.4945 92.9736 70.4525 93.3936 70.3965C93.8135 70.3265 94.2264 70.2285 94.6323 70.1025C95.0382 69.9766 95.3952 69.8086 95.7031 69.5986C96.0251 69.3747 96.277 69.1017 96.459 68.7798C96.6549 68.4438 96.7529 68.0449 96.7529 67.583C96.7529 67.1071 96.627 66.6942 96.375 66.3442C96.137 65.9803 95.8221 65.6654 95.4302 65.3994C95.0382 65.1335 94.5903 64.9095 94.0864 64.7275C93.5825 64.5456 93.0716 64.3846 92.5537 64.2446C92.0498 64.1047 91.5599 63.9857 91.084 63.8877C90.6081 63.7757 90.1951 63.6707 89.8452 63.5728C89.2013 63.3908 88.5225 63.2088 87.8086 63.0269C87.0947 62.8309 86.3879 62.6139 85.688 62.376C84.9881 62.124 84.3162 61.8301 83.6724 61.4941C83.0425 61.1582 82.4826 60.7593 81.9927 60.2974C81.5168 59.8215 81.1318 59.2686 80.8379 58.6387C80.5579 57.9948 80.418 57.2459 80.418 56.3921C80.418 54.8244 80.7259 53.5156 81.3418 52.4658C81.9717 51.402 82.7975 50.5552 83.8193 49.9253C84.8411 49.2814 86.0029 48.8265 87.3047 48.5605C88.6064 48.2946 89.9292 48.1616 91.2729 48.1616C92.1968 48.1616 93.1696 48.2596 94.1914 48.4556C95.2132 48.6375 96.207 48.9175 97.1729 49.2954C98.1387 49.6593 99.0415 50.1073 99.8813 50.6392C100.721 51.1711 101.421 51.7799 101.981 52.4658L97.8447 55.8672C97.5368 55.0273 97.1309 54.3065 96.627 53.7046C96.137 53.1027 95.5981 52.6128 95.0103 52.2349C94.4364 51.8429 93.8415 51.556 93.2256 51.374C92.6237 51.1921 92.0638 51.1011 91.5459 51.1011C91.042 51.1011 90.4751 51.1221 89.8452 51.1641C89.2153 51.2061 88.6204 51.325 88.0605 51.521C87.5146 51.717 87.0457 52.0179 86.6538 52.4238C86.2759 52.8158 86.0869 53.3617 86.0869 54.0615C86.0869 54.5654 86.1989 54.9993 86.4229 55.3633C86.6608 55.7132 86.9688 56.0212 87.3467 56.2871C87.7246 56.5391 88.1515 56.756 88.6274 56.938C89.1174 57.106 89.6143 57.2599 90.1182 57.3999C90.6221 57.5259 91.112 57.6379 91.5879 57.7358C92.0638 57.8338 92.4907 57.9388 92.8687 58.0508C93.5125 58.2327 94.1914 58.4217 94.9053 58.6177C95.6331 58.7996 96.347 59.0166 97.0469 59.2686C97.7467 59.5065 98.4186 59.7935 99.0625 60.1294C99.7204 60.4513 100.294 60.8503 100.784 61.3262C101.274 61.8021 101.666 62.362 101.96 63.0059C102.254 63.6357 102.401 64.3846 102.401 65.2524ZM116.027 73H108.91V51.563H104.5V48.7495H108.91V39.8262H116.027V48.7495H123.376V51.563H116.027V73ZM151.196 60.8223C151.196 62.082 151.028 63.2648 150.692 64.3706C150.356 65.4764 149.887 66.4982 149.285 67.436C148.697 68.3739 147.983 69.2207 147.144 69.9766C146.304 70.7184 145.38 71.3483 144.372 71.8662C143.378 72.3841 142.307 72.783 141.16 73.063C140.026 73.3429 138.857 73.4829 137.653 73.4829C136.45 73.4829 135.281 73.3429 134.147 73.063C133.013 72.783 131.942 72.3841 130.935 71.8662C129.941 71.3483 129.024 70.7184 128.184 69.9766C127.344 69.2207 126.623 68.3739 126.021 67.436C125.434 66.4982 124.972 65.4764 124.636 64.3706C124.3 63.2508 124.132 62.068 124.132 60.8223C124.132 59.5765 124.3 58.4007 124.636 57.2949C124.972 56.1751 125.434 55.1463 126.021 54.2085C126.623 53.2707 127.344 52.4308 128.184 51.689C129.024 50.9331 129.941 50.2962 130.935 49.7783C131.942 49.2604 133.013 48.8615 134.147 48.5815C135.281 48.3016 136.45 48.1616 137.653 48.1616C138.857 48.1616 140.026 48.3016 141.16 48.5815C142.307 48.8615 143.378 49.2604 144.372 49.7783C145.38 50.2962 146.304 50.9331 147.144 51.689C147.983 52.4308 148.697 53.2707 149.285 54.2085C149.887 55.1463 150.356 56.1751 150.692 57.2949C151.028 58.4007 151.196 59.5765 151.196 60.8223ZM143.973 60.8223C143.973 60.1504 143.931 59.4435 143.847 58.7017C143.777 57.9458 143.651 57.2109 143.469 56.4971C143.287 55.7692 143.035 55.0763 142.713 54.4185C142.405 53.7466 142.021 53.1657 141.559 52.6758C141.097 52.1719 140.544 51.7729 139.9 51.479C139.256 51.1711 138.507 51.0171 137.653 51.0171C136.841 51.0171 136.121 51.1711 135.491 51.479C134.861 51.7869 134.308 52.1999 133.832 52.7178C133.37 53.2217 132.978 53.8096 132.656 54.4814C132.348 55.1533 132.096 55.8532 131.9 56.5811C131.704 57.2949 131.564 58.0228 131.48 58.7646C131.396 59.4925 131.354 60.1784 131.354 60.8223C131.354 61.4661 131.396 62.159 131.48 62.9009C131.564 63.6287 131.704 64.3566 131.9 65.0845C132.096 65.8123 132.348 66.5122 132.656 67.1841C132.978 67.842 133.37 68.4299 133.832 68.9478C134.308 69.4517 134.861 69.8576 135.491 70.1655C136.121 70.4735 136.841 70.6274 137.653 70.6274C138.493 70.6274 139.235 70.4805 139.879 70.1865C140.523 69.8786 141.076 69.4727 141.538 68.9688C142.014 68.4648 142.405 67.884 142.713 67.2261C143.021 66.5682 143.266 65.8753 143.448 65.1475C143.644 64.4196 143.777 63.6847 143.847 62.9429C143.931 62.201 143.973 61.4941 143.973 60.8223ZM176.307 50.8911L172.318 57.5049C172.15 56.945 171.933 56.3151 171.667 55.6152C171.401 54.9154 171.072 54.2645 170.68 53.6626C170.288 53.0467 169.819 52.5358 169.273 52.1299C168.728 51.71 168.098 51.5 167.384 51.5C166.726 51.5 166.152 51.668 165.662 52.0039C165.186 52.3398 164.78 52.7808 164.444 53.3267C164.108 53.8586 163.828 54.4674 163.604 55.1533C163.395 55.8252 163.227 56.5111 163.101 57.2109C162.989 57.8968 162.912 58.5617 162.87 59.2056C162.828 59.8354 162.807 60.3813 162.807 60.8433V73H155.689V48.7495H158.418L161.295 54.3975C161.687 53.4876 162.135 52.6548 162.639 51.8989C163.143 51.1291 163.723 50.4712 164.381 49.9253C165.039 49.3654 165.781 48.9315 166.607 48.6235C167.447 48.3156 168.392 48.1616 169.441 48.1616C169.987 48.1616 170.596 48.2106 171.268 48.3086C171.94 48.3926 172.598 48.5465 173.242 48.7705C173.886 48.9805 174.48 49.2604 175.026 49.6104C175.572 49.9603 175.999 50.3872 176.307 50.8911ZM184.496 61.4941C185.363 61.6901 186.231 61.8441 187.099 61.9561C187.967 62.068 188.842 62.124 189.724 62.124C190.647 62.124 191.501 62.04 192.285 61.8721C193.083 61.6901 193.769 61.3962 194.343 60.9902C194.931 60.5703 195.393 60.0174 195.729 59.3315C196.064 58.6457 196.232 57.7918 196.232 56.77C196.232 55.9442 196.12 55.1883 195.896 54.5024C195.673 53.8166 195.337 53.2287 194.889 52.7388C194.455 52.2489 193.916 51.8709 193.272 51.605C192.628 51.325 191.879 51.1851 191.025 51.1851C190.228 51.1851 189.507 51.332 188.863 51.626C188.233 51.9199 187.673 52.3188 187.183 52.8228C186.707 53.3127 186.294 53.8866 185.944 54.5444C185.608 55.2023 185.328 55.8882 185.104 56.6021C184.881 57.3159 184.72 58.0368 184.622 58.7646C184.524 59.4925 184.475 60.1784 184.475 60.8223C184.475 60.9342 184.475 61.0462 184.475 61.1582C184.475 61.2702 184.482 61.3822 184.496 61.4941ZM201.985 56.707C201.985 57.7008 201.824 58.5897 201.502 59.3735C201.181 60.1434 200.74 60.8223 200.18 61.4102C199.634 61.998 198.997 62.495 198.269 62.9009C197.541 63.3068 196.764 63.6427 195.938 63.9087C195.113 64.1606 194.259 64.3426 193.377 64.4546C192.509 64.5666 191.662 64.6226 190.836 64.6226C189.787 64.6226 188.751 64.5526 187.729 64.4126C186.707 64.2586 185.699 64.0207 184.706 63.6987C184.86 64.6226 185.104 65.5044 185.44 66.3442C185.776 67.1701 186.224 67.8979 186.784 68.5278C187.344 69.1437 188.03 69.6336 188.842 69.9976C189.668 70.3615 190.64 70.5435 191.76 70.5435C192.502 70.5435 193.209 70.4315 193.881 70.2075C194.553 69.9836 195.169 69.6686 195.729 69.2627C196.288 68.8568 196.778 68.3739 197.198 67.814C197.632 67.2541 197.982 66.6312 198.248 65.9453L201.313 67.0791C200.852 68.1849 200.215 69.1437 199.403 69.9556C198.605 70.7534 197.695 71.4183 196.673 71.9502C195.666 72.4681 194.588 72.853 193.44 73.105C192.306 73.3569 191.179 73.4829 190.06 73.4829C188.212 73.4829 186.504 73.175 184.937 72.5591C183.369 71.9292 182.018 71.0544 180.884 69.9346C179.75 68.8148 178.862 67.478 178.218 65.9243C177.574 64.3706 177.252 62.6699 177.252 60.8223C177.252 58.9746 177.574 57.2739 178.218 55.7202C178.862 54.1665 179.75 52.8298 180.884 51.71C182.018 50.5902 183.369 49.7223 184.937 49.1064C186.504 48.4766 188.212 48.1616 190.06 48.1616C190.955 48.1616 191.872 48.2246 192.81 48.3506C193.748 48.4766 194.658 48.6795 195.54 48.9595C196.421 49.2254 197.254 49.5754 198.038 50.0093C198.822 50.4432 199.501 50.9821 200.075 51.626C200.663 52.2559 201.125 52.9907 201.46 53.8306C201.81 54.6704 201.985 55.6292 201.985 56.707Z" fill="white"/>
</g>
<defs>
<clipPath id="clip0_0_1">
<rect width="209" height="91" fill="white"/>
</clipPath>
</defs>
</svg>
