<svg xmlns="http://www.w3.org/2000/svg" fill="none" viewBox="1.6 0.5 195.39 76">
<path d="M116 1C155.2 22.6 61 60 8.99999 76C94.6 64.8 128 34.6667 134 21L177 32L116 1Z" fill="#FF8A00" stroke="#FF8A00"/>
<path d="M27.3789 67H20.2822V64.1025C19.4424 65.2503 18.4276 66.1042 17.2378 66.6641C16.062 67.21 14.7673 67.4829 13.3535 67.4829C11.5059 67.4829 9.85417 67.154 8.39844 66.4961C6.94271 65.8382 5.71094 64.9424 4.70312 63.8086C3.69531 62.6608 2.92546 61.3171 2.39355 59.7773C1.86165 58.2376 1.5957 56.5859 1.5957 54.8223C1.5957 53.0586 1.86165 51.4069 2.39355 49.8672C2.92546 48.3275 3.69531 46.9907 4.70312 45.8569C5.71094 44.7091 6.94271 43.8063 8.39844 43.1484C9.85417 42.4906 11.5059 42.1616 13.3535 42.1616C14.2913 42.1616 15.1802 42.3016 16.02 42.5815C16.8739 42.8615 17.6507 43.2604 18.3506 43.7783C19.0645 44.2822 19.6873 44.8981 20.2192 45.626C20.7651 46.3398 21.1921 47.1377 21.5 48.0195L24.6494 42.7495H27.3789V67ZM20.2402 54.8223C20.2402 54.1924 20.2052 53.5275 20.1353 52.8276C20.0793 52.1278 19.9743 51.4349 19.8203 50.749C19.6663 50.0632 19.4494 49.4123 19.1694 48.7964C18.9035 48.1665 18.5535 47.6136 18.1196 47.1377C17.6997 46.6478 17.1888 46.2629 16.5869 45.9829C15.985 45.703 15.2852 45.563 14.4873 45.563C13.6895 45.563 12.9966 45.71 12.4087 46.0039C11.8208 46.2839 11.3169 46.6688 10.897 47.1587C10.4771 47.6346 10.1271 48.1875 9.84717 48.8174C9.58122 49.4473 9.37126 50.1051 9.21729 50.791C9.06331 51.4769 8.95133 52.1698 8.88135 52.8696C8.82536 53.5555 8.79736 54.2064 8.79736 54.8223C8.79736 55.4382 8.82536 56.096 8.88135 56.7959C8.95133 57.4958 9.06331 58.1886 9.21729 58.8745C9.37126 59.5604 9.58122 60.2183 9.84717 60.8481C10.1271 61.478 10.4771 62.0379 10.897 62.5278C11.3169 63.0037 11.8208 63.3887 12.4087 63.6826C12.9966 63.9626 13.6895 64.1025 14.4873 64.1025C15.2152 64.1025 15.859 63.9556 16.4189 63.6616C16.9928 63.3537 17.4897 62.9478 17.9097 62.4438C18.3436 61.9399 18.7075 61.366 19.0015 60.7222C19.2954 60.0783 19.5334 59.4134 19.7153 58.7275C19.8973 58.0417 20.0303 57.3628 20.1143 56.6909C20.1982 56.005 20.2402 55.3822 20.2402 54.8223ZM53.939 44.8911L49.9497 51.5049C49.7817 50.945 49.5648 50.3151 49.2988 49.6152C49.0329 48.9154 48.7039 48.2645 48.312 47.6626C47.9201 47.0467 47.4512 46.5358 46.9053 46.1299C46.3594 45.71 45.7295 45.5 45.0156 45.5C44.3577 45.5 43.7839 45.668 43.2939 46.0039C42.818 46.3398 42.4121 46.7808 42.0762 47.3267C41.7402 47.8586 41.4603 48.4674 41.2363 49.1533C41.0264 49.8252 40.8584 50.5111 40.7324 51.2109C40.6204 51.8968 40.5435 52.5617 40.5015 53.2056C40.4595 53.8354 40.4385 54.3813 40.4385 54.8433V67H33.3208V42.7495H36.0503L38.9268 48.3975C39.3187 47.4876 39.7666 46.6548 40.2705 45.8989C40.7744 45.1291 41.3553 44.4712 42.0132 43.9253C42.6711 43.3654 43.4129 42.9315 44.2388 42.6235C45.0786 42.3156 46.0234 42.1616 47.0732 42.1616C47.6191 42.1616 48.228 42.2106 48.8999 42.3086C49.5718 42.3926 50.2297 42.5465 50.8735 42.7705C51.5174 42.9805 52.1123 43.2604 52.6582 43.6104C53.2041 43.9603 53.631 44.3872 53.939 44.8911ZM66.0537 67H58.936V45.563H54.5269V42.7495H58.936V33.8262H66.0537V42.7495H73.4023V45.563H66.0537V67ZM97.4009 59.2524C97.4009 60.3162 97.2469 61.2611 96.939 62.0869C96.631 62.9128 96.2111 63.6336 95.6792 64.2495C95.1473 64.8514 94.5174 65.3623 93.7896 65.7822C93.0617 66.1882 92.2778 66.5171 91.438 66.769C90.6121 67.021 89.7443 67.203 88.8345 67.3149C87.9246 67.4269 87.0218 67.4829 86.126 67.4829C84.9222 67.4829 83.8584 67.4059 82.9346 67.252C82.0107 67.098 81.1289 66.853 80.2891 66.5171C79.4492 66.1672 78.6094 65.7192 77.7695 65.1733C76.9437 64.6274 76.0199 63.9626 74.998 63.1787L79.1343 59.7983C79.5122 60.5122 80.0091 61.1631 80.625 61.751C81.2549 62.3249 81.9058 62.8218 82.5776 63.2417C83.2495 63.6616 83.9004 63.9836 84.5303 64.2075C85.1602 64.4315 85.6711 64.5435 86.063 64.5435C86.3849 64.5435 86.7489 64.5365 87.1548 64.5225C87.5607 64.4945 87.9736 64.4525 88.3936 64.3965C88.8135 64.3265 89.2264 64.2285 89.6323 64.1025C90.0382 63.9766 90.3952 63.8086 90.7031 63.5986C91.0251 63.3747 91.277 63.1017 91.459 62.7798C91.6549 62.4438 91.7529 62.0449 91.7529 61.583C91.7529 61.1071 91.627 60.6942 91.375 60.3442C91.137 59.9803 90.8221 59.6654 90.4302 59.3994C90.0382 59.1335 89.5903 58.9095 89.0864 58.7275C88.5825 58.5456 88.0716 58.3846 87.5537 58.2446C87.0498 58.1047 86.5599 57.9857 86.084 57.8877C85.6081 57.7757 85.1951 57.6707 84.8452 57.5728C84.2013 57.3908 83.5225 57.2088 82.8086 57.0269C82.0947 56.8309 81.3879 56.6139 80.688 56.376C79.9881 56.124 79.3162 55.8301 78.6724 55.4941C78.0425 55.1582 77.4826 54.7593 76.9927 54.2974C76.5168 53.8215 76.1318 53.2686 75.8379 52.6387C75.5579 51.9948 75.418 51.2459 75.418 50.3921C75.418 48.8244 75.7259 47.5156 76.3418 46.4658C76.9717 45.402 77.7975 44.5552 78.8193 43.9253C79.8411 43.2814 81.0029 42.8265 82.3047 42.5605C83.6064 42.2946 84.9292 42.1616 86.2729 42.1616C87.1968 42.1616 88.1696 42.2596 89.1914 42.4556C90.2132 42.6375 91.207 42.9175 92.1729 43.2954C93.1387 43.6593 94.0415 44.1073 94.8813 44.6392C95.7212 45.1711 96.4211 45.7799 96.981 46.4658L92.8447 49.8672C92.5368 49.0273 92.1309 48.3065 91.627 47.7046C91.137 47.1027 90.5981 46.6128 90.0103 46.2349C89.4364 45.8429 88.8415 45.556 88.2256 45.374C87.6237 45.1921 87.0638 45.1011 86.5459 45.1011C86.042 45.1011 85.4751 45.1221 84.8452 45.1641C84.2153 45.2061 83.6204 45.325 83.0605 45.521C82.5146 45.717 82.0457 46.0179 81.6538 46.4238C81.2759 46.8158 81.0869 47.3617 81.0869 48.0615C81.0869 48.5654 81.1989 48.9993 81.4229 49.3633C81.6608 49.7132 81.9688 50.0212 82.3467 50.2871C82.7246 50.5391 83.1515 50.756 83.6274 50.938C84.1174 51.106 84.6143 51.2599 85.1182 51.3999C85.6221 51.5259 86.112 51.6379 86.5879 51.7358C87.0638 51.8338 87.4907 51.9388 87.8687 52.0508C88.5125 52.2327 89.1914 52.4217 89.9053 52.6177C90.6331 52.7996 91.347 53.0166 92.0469 53.2686C92.7467 53.5065 93.4186 53.7935 94.0625 54.1294C94.7204 54.4513 95.2943 54.8503 95.7842 55.3262C96.2741 55.8021 96.666 56.362 96.96 57.0059C97.2539 57.6357 97.4009 58.3846 97.4009 59.2524ZM111.027 67H103.91V45.563H99.5005V42.7495H103.91V33.8262H111.027V42.7495H118.376V45.563H111.027V67ZM146.196 54.8223C146.196 56.082 146.028 57.2648 145.692 58.3706C145.356 59.4764 144.887 60.4982 144.285 61.436C143.697 62.3739 142.983 63.2207 142.144 63.9766C141.304 64.7184 140.38 65.3483 139.372 65.8662C138.378 66.3841 137.307 66.783 136.16 67.063C135.026 67.3429 133.857 67.4829 132.653 67.4829C131.45 67.4829 130.281 67.3429 129.147 67.063C128.013 66.783 126.942 66.3841 125.935 65.8662C124.941 65.3483 124.024 64.7184 123.184 63.9766C122.344 63.2207 121.623 62.3739 121.021 61.436C120.434 60.4982 119.972 59.4764 119.636 58.3706C119.3 57.2508 119.132 56.068 119.132 54.8223C119.132 53.5765 119.3 52.4007 119.636 51.2949C119.972 50.1751 120.434 49.1463 121.021 48.2085C121.623 47.2707 122.344 46.4308 123.184 45.689C124.024 44.9331 124.941 44.2962 125.935 43.7783C126.942 43.2604 128.013 42.8615 129.147 42.5815C130.281 42.3016 131.45 42.1616 132.653 42.1616C133.857 42.1616 135.026 42.3016 136.16 42.5815C137.307 42.8615 138.378 43.2604 139.372 43.7783C140.38 44.2962 141.304 44.9331 142.144 45.689C142.983 46.4308 143.697 47.2707 144.285 48.2085C144.887 49.1463 145.356 50.1751 145.692 51.2949C146.028 52.4007 146.196 53.5765 146.196 54.8223ZM138.973 54.8223C138.973 54.1504 138.931 53.4435 138.847 52.7017C138.777 51.9458 138.651 51.2109 138.469 50.4971C138.287 49.7692 138.035 49.0763 137.713 48.4185C137.405 47.7466 137.021 47.1657 136.559 46.6758C136.097 46.1719 135.544 45.7729 134.9 45.479C134.256 45.1711 133.507 45.0171 132.653 45.0171C131.841 45.0171 131.121 45.1711 130.491 45.479C129.861 45.7869 129.308 46.1999 128.832 46.7178C128.37 47.2217 127.978 47.8096 127.656 48.4814C127.348 49.1533 127.096 49.8532 126.9 50.5811C126.704 51.2949 126.564 52.0228 126.48 52.7646C126.396 53.4925 126.354 54.1784 126.354 54.8223C126.354 55.4661 126.396 56.159 126.48 56.9009C126.564 57.6287 126.704 58.3566 126.9 59.0845C127.096 59.8123 127.348 60.5122 127.656 61.1841C127.978 61.842 128.37 62.4299 128.832 62.9478C129.308 63.4517 129.861 63.8576 130.491 64.1655C131.121 64.4735 131.841 64.6274 132.653 64.6274C133.493 64.6274 134.235 64.4805 134.879 64.1865C135.523 63.8786 136.076 63.4727 136.538 62.9688C137.014 62.4648 137.405 61.884 137.713 61.2261C138.021 60.5682 138.266 59.8753 138.448 59.1475C138.644 58.4196 138.777 57.6847 138.847 56.9429C138.931 56.201 138.973 55.4941 138.973 54.8223ZM171.307 44.8911L167.318 51.5049C167.15 50.945 166.933 50.3151 166.667 49.6152C166.401 48.9154 166.072 48.2645 165.68 47.6626C165.288 47.0467 164.819 46.5358 164.273 46.1299C163.728 45.71 163.098 45.5 162.384 45.5C161.726 45.5 161.152 45.668 160.662 46.0039C160.186 46.3398 159.78 46.7808 159.444 47.3267C159.108 47.8586 158.828 48.4674 158.604 49.1533C158.395 49.8252 158.227 50.5111 158.101 51.2109C157.989 51.8968 157.912 52.5617 157.87 53.2056C157.828 53.8354 157.807 54.3813 157.807 54.8433V67H150.689V42.7495H153.418L156.295 48.3975C156.687 47.4876 157.135 46.6548 157.639 45.8989C158.143 45.1291 158.723 44.4712 159.381 43.9253C160.039 43.3654 160.781 42.9315 161.607 42.6235C162.447 42.3156 163.392 42.1616 164.441 42.1616C164.987 42.1616 165.596 42.2106 166.268 42.3086C166.94 42.3926 167.598 42.5465 168.242 42.7705C168.886 42.9805 169.48 43.2604 170.026 43.6104C170.572 43.9603 170.999 44.3872 171.307 44.8911ZM179.496 55.4941C180.363 55.6901 181.231 55.8441 182.099 55.9561C182.967 56.068 183.842 56.124 184.724 56.124C185.647 56.124 186.501 56.04 187.285 55.8721C188.083 55.6901 188.769 55.3962 189.343 54.9902C189.931 54.5703 190.393 54.0174 190.729 53.3315C191.064 52.6457 191.232 51.7918 191.232 50.77C191.232 49.9442 191.12 49.1883 190.896 48.5024C190.673 47.8166 190.337 47.2287 189.889 46.7388C189.455 46.2489 188.916 45.8709 188.272 45.605C187.628 45.325 186.879 45.1851 186.025 45.1851C185.228 45.1851 184.507 45.332 183.863 45.626C183.233 45.9199 182.673 46.3188 182.183 46.8228C181.707 47.3127 181.294 47.8866 180.944 48.5444C180.608 49.2023 180.328 49.8882 180.104 50.6021C179.881 51.3159 179.72 52.0368 179.622 52.7646C179.524 53.4925 179.475 54.1784 179.475 54.8223C179.475 54.9342 179.475 55.0462 179.475 55.1582C179.475 55.2702 179.482 55.3822 179.496 55.4941ZM196.985 50.707C196.985 51.7008 196.824 52.5897 196.502 53.3735C196.181 54.1434 195.74 54.8223 195.18 55.4102C194.634 55.998 193.997 56.495 193.269 56.9009C192.541 57.3068 191.764 57.6427 190.938 57.9087C190.113 58.1606 189.259 58.3426 188.377 58.4546C187.509 58.5666 186.662 58.6226 185.836 58.6226C184.787 58.6226 183.751 58.5526 182.729 58.4126C181.707 58.2586 180.699 58.0207 179.706 57.6987C179.86 58.6226 180.104 59.5044 180.44 60.3442C180.776 61.1701 181.224 61.8979 181.784 62.5278C182.344 63.1437 183.03 63.6336 183.842 63.9976C184.668 64.3615 185.64 64.5435 186.76 64.5435C187.502 64.5435 188.209 64.4315 188.881 64.2075C189.553 63.9836 190.169 63.6686 190.729 63.2627C191.288 62.8568 191.778 62.3739 192.198 61.814C192.632 61.2541 192.982 60.6312 193.248 59.9453L196.313 61.0791C195.852 62.1849 195.215 63.1437 194.403 63.9556C193.605 64.7534 192.695 65.4183 191.673 65.9502C190.666 66.4681 189.588 66.853 188.44 67.105C187.306 67.3569 186.179 67.4829 185.06 67.4829C183.212 67.4829 181.504 67.175 179.937 66.5591C178.369 65.9292 177.018 65.0544 175.884 63.9346C174.75 62.8148 173.862 61.478 173.218 59.9243C172.574 58.3706 172.252 56.6699 172.252 54.8223C172.252 52.9746 172.574 51.2739 173.218 49.7202C173.862 48.1665 174.75 46.8298 175.884 45.71C177.018 44.5902 178.369 43.7223 179.937 43.1064C181.504 42.4766 183.212 42.1616 185.06 42.1616C185.955 42.1616 186.872 42.2246 187.81 42.3506C188.748 42.4766 189.658 42.6795 190.54 42.9595C191.421 43.2254 192.254 43.5754 193.038 44.0093C193.822 44.4432 194.501 44.9821 195.075 45.626C195.663 46.2559 196.125 46.9907 196.46 47.8306C196.81 48.6704 196.985 49.6292 196.985 50.707Z" fill="black"/>
</svg>